# xmcd
#
# Track frame offsets:
#	150
#	6466
#	15791
#	41844
#	63204
#	79204
#	97697
#	112957
#	133340
#	149101
#	170750
#	194880
#	206563
#	220214
#	245793
#	265669
#	282452
#	291590
#	306048
#
# Disc length: 4379 seconds
#
# Revision: 1
# Processed by: cddbd v1.5.2PL0 Copyright (c) Steve Scherf et al.
# Submitted via: audiograbber 1.83.01
#
DISCID=2d111913
DTITLE=Various Artist - Cafe Hookah, Exotic Flavours from the Orient
DYEAR=2008
DGENRE=Middle Eastern
TTITLE0=Sami Nossair Orchestra - Kaman Ya Hobb
TTITLE1=Sami Nossair Orchestra - Taxim Zaman
TTITLE2=Sami Nossair Orchestra - Gamil Gamal
TTITLE3=Mohammed Ali Ensemble - Moukaddama
TTITLE4=Ahmad Al Gebaly and Orchestra - Sahranin
TTITLE5=Cairo Orchestra - Enta Omri
TTITLE6=Mohammed Ali Ensemble - Ala Baladl Mahboob
TTITLE7=Mosavo and Stepan Sarafian - Dzovasdghige
TTITLE8=Cairo Orchestra - Al Atlal
TTITLE9=Salatin Al Tarab Orchestra - Il Hilwa Di
TTITLE10=Mosavo - Desert Moods
TTITLE11=Jalal Joubi and Ensemble - Ya Tera Tiri
TTITLE12=Jalal Joubi and Ensemble - Marmar Zamani
TTITLE13=Salatin Al Tarab Orchestra - Hawil Ya Ghanam
TTITLE14=Salatin Al Tarab Orchestra - Ya Shadil Al Han
TTITLE15=Jalal Joubi and Ensemble - Rakset Manadil
TTITLE16=Jalal Joubi and Ensemble - Mouwashaha Masri
TTITLE17=Jalal Joubi and Ensemble - Ya Gazalan
TTITLE18=Salatin Al Tarab Orchestra - Sinanay Yavroum
EXTD=www.hollywoodmusiccenter.com
EXTT0=
EXTT1=
EXTT2=
EXTT3=
EXTT4=
EXTT5=
EXTT6=
EXTT7=
EXTT8=
EXTT9=
EXTT10=
EXTT11=
EXTT12=
EXTT13=
EXTT14=
EXTT15=
EXTT16=
EXTT17=
EXTT18=
PLAYORDER=
